<svg width="1928" height="70" viewBox="0 0 1928 70" fill="none" xmlns="http://www.w3.org/2000/svg">
<g clip-path="url(#clip0_333_316)">
<path d="M2473.3 69.4961L0 69.4959" stroke="#E1BCDB" stroke-width="1.3984"/>
<path d="M2473.3 0.000244141L-7.62939e-06 2.79181e-05" stroke="#E1BCDB" stroke-width="1.3984"/>
<path d="M59.4294 26.0765L59.4137 26.0713C58.1005 25.785 56.6561 25.6826 55.0068 25.7719C54.9254 25.7771 54.8519 25.7797 54.7704 25.785C54.4737 25.8008 54.1848 25.827 53.8933 25.8559C53.7541 25.6878 53.6149 25.5224 53.4678 25.3569L53.4626 25.3517C53.3365 25.2072 53.2052 25.068 53.0686 24.9288C50.403 22.1791 46.9783 20.803 42.7894 20.803C38.6005 20.803 35.1733 22.1791 32.5129 24.9315C30.664 26.8408 29.4559 29.0783 28.8939 31.6495C28.7599 32.2535 28.6627 32.8733 28.6023 33.5167C28.5761 33.5299 28.5524 33.5456 28.5262 33.5587C28.4553 33.6008 28.3817 33.6402 28.3108 33.6822C27.6096 34.0787 26.9137 34.5147 26.1836 35.0111C23.8698 36.6105 22.8141 38.3123 23.2106 39.804C23.6361 41.4034 25.6793 42.467 28.8177 42.7297C29.624 42.7901 30.4434 42.8216 31.2785 42.8216H31.2864C31.6908 42.8216 32.0979 42.8137 32.5102 42.7953C32.6573 42.7953 32.807 42.7874 32.9541 42.7796C33.1747 42.7717 33.3979 42.7585 33.6211 42.7428C33.8864 42.727 34.1569 42.706 34.4221 42.6798C34.9632 42.6377 35.5068 42.5773 36.0636 42.5012C36.3419 42.467 36.6203 42.425 36.904 42.383C37.1745 42.3462 37.445 42.299 37.7181 42.2517C37.7549 42.2517 37.789 42.2438 37.8232 42.2359C38.0306 42.2018 38.2381 42.1676 38.4482 42.1256C38.7397 42.0757 39.0339 42.0206 39.3306 41.9602C41.1664 41.5977 43.1019 41.1066 45.1609 40.5C46.3506 40.1244 47.4826 39.741 48.5567 39.3392C48.7642 39.263 48.9717 39.1868 49.1739 39.108C51.1068 38.3701 52.8506 37.5874 54.4264 36.7523C54.6496 36.6288 54.8702 36.5107 55.0882 36.3899C55.5951 36.1062 56.0836 35.82 56.5537 35.5206C56.706 35.4286 56.8531 35.3341 57.0001 35.2369C57.9377 34.6329 58.807 34 59.6212 33.3276C61.0945 32.1537 62.6834 30.1656 62.3105 28.4218C62.0662 27.2951 61.0945 26.5046 59.4216 26.0791L59.4294 26.0765ZM25.3011 39.2105C25.1357 38.8691 25.1698 38.0208 27.2262 36.2218C27.6359 35.883 28.0666 35.5495 28.5183 35.2264V35.3236C28.5183 35.5442 28.5236 35.7596 28.5341 35.9697C28.5393 36.1351 28.5498 36.2979 28.5629 36.4634V36.4686C28.5761 36.6499 28.5892 36.8232 28.6102 37.0018C28.6155 37.0701 28.6234 37.1357 28.6312 37.204C28.6864 37.7266 28.7652 38.2335 28.8755 38.7325C28.9779 39.2394 29.1118 39.7331 29.272 40.2111C27.2236 40.2058 25.6294 39.9038 25.2985 39.2157L25.3011 39.2105ZM57.9062 31.4C57.5937 31.6153 57.2733 31.8228 56.9476 32.0198C56.8925 32.0539 56.8347 32.0907 56.7795 32.1222C56.6824 31.6074 56.5642 31.1058 56.4119 30.6147C56.2674 30.121 56.0941 29.643 55.8971 29.1781C55.8052 28.9549 55.708 28.7422 55.6003 28.5268V28.5216C55.5294 28.3771 55.4559 28.2353 55.3797 28.0909C55.3797 28.0856 55.3745 28.0856 55.3745 28.083C55.2642 27.8755 55.1513 27.668 55.0252 27.4658L54.8729 27.2242C55.0383 27.2242 55.2012 27.2294 55.3666 27.2373C55.4428 27.2426 55.5216 27.2426 55.5977 27.2452V27.2505C55.8892 27.2636 56.1807 27.2793 56.4644 27.3004C59.5135 27.6208 60.0335 28.3824 60.1123 28.6949C60.2725 29.3068 59.4662 30.2943 57.9036 31.3973L57.9062 31.4Z" fill="#BFBBBF" fill-opacity="0.8"/>
<path d="M39.6308 43.4044H39.6256C39.6256 43.4044 39.6125 43.4096 39.6098 43.4096C39.5468 43.4227 39.4864 43.4359 39.4286 43.4438C36.692 43.9874 34.1892 44.2631 31.7809 44.292C31.6759 44.2973 31.5577 44.2999 31.4316 44.2999C31.7599 44.7254 32.1145 45.1403 32.5032 45.5369C35.1636 48.2892 38.5882 49.6654 42.7797 49.6654C46.9712 49.6654 50.3933 48.2892 53.0563 45.5369C55.328 43.189 56.6228 40.3474 56.9484 37.0042C54.9183 38.249 52.6125 39.3652 49.9389 40.3947C46.2779 41.7235 42.7955 42.7977 39.6282 43.4044H39.6308Z" fill="#BFBBBF" fill-opacity="0.8"/>
<path d="M135.091 34.391L133.079 27.0611L125.505 29.1411L129.392 22.3154L122.787 18.5546L118.9 25.3803L116.823 17.8062L109.49 19.8179L111.57 27.392L104.745 23.5051L100.984 30.1102L107.809 33.9971L100.235 36.0744L102.247 43.4044L109.821 41.327L105.934 48.1526L112.539 51.9135L116.426 45.0878L118.504 52.6619L125.836 50.6502L123.756 43.0761L130.582 46.9629L134.343 40.3553L127.517 36.471L135.091 34.391Z" fill="#BFBBBF" fill-opacity="0.8"/>
<path d="M207.465 35.2341C202.701 35.2341 198.388 37.167 195.266 40.287C192.143 43.4097 190.213 47.7246 190.213 52.486C190.213 42.958 182.489 35.2341 172.961 35.2341C177.725 35.2341 182.04 33.3038 185.16 30.1812C188.283 27.0586 190.213 22.7462 190.213 17.9822C190.213 22.7462 192.146 27.0612 195.266 30.1812C198.388 33.3038 202.703 35.2341 207.465 35.2341Z" fill="#BFBBBF" fill-opacity="0.8"/>
<path d="M274.841 20.481V49.1965H266.652V34.4606L251.125 49.987L245.334 44.1961L260.858 28.6697H245.55V20.481H274.841Z" fill="#BFBBBF" fill-opacity="0.8"/>
<path d="M652.347 26.0765L652.332 26.0713C651.019 25.785 649.574 25.6826 647.925 25.7719C647.843 25.7771 647.77 25.7797 647.688 25.785C647.392 25.8008 647.103 25.827 646.811 25.8559C646.672 25.6878 646.533 25.5224 646.386 25.3569L646.381 25.3517C646.254 25.2072 646.123 25.068 645.987 24.9288C643.321 22.1791 639.896 20.803 635.707 20.803C631.519 20.803 628.091 22.1791 625.431 24.9315C623.582 26.8408 622.374 29.0783 621.812 31.6495C621.678 32.2535 621.581 32.8733 621.52 33.5167C621.494 33.5299 621.47 33.5456 621.444 33.5587C621.373 33.6008 621.3 33.6402 621.229 33.6822C620.528 34.0787 619.832 34.5147 619.102 35.0111C616.788 36.6105 615.732 38.3123 616.129 39.804C616.554 41.4034 618.597 42.467 621.736 42.7297C622.542 42.7901 623.361 42.8216 624.196 42.8216H624.204C624.609 42.8216 625.016 42.8137 625.428 42.7953C625.575 42.7953 625.725 42.7874 625.872 42.7796C626.093 42.7717 626.316 42.7585 626.539 42.7428C626.804 42.727 627.075 42.706 627.34 42.6798C627.881 42.6377 628.425 42.5773 628.982 42.5012C629.26 42.467 629.538 42.425 629.822 42.383C630.092 42.3462 630.363 42.299 630.636 42.2517C630.673 42.2517 630.707 42.2438 630.741 42.2359C630.949 42.2018 631.156 42.1676 631.366 42.1256C631.658 42.0757 631.952 42.0206 632.249 41.9602C634.084 41.5977 636.02 41.1066 638.079 40.5C639.269 40.1244 640.401 39.741 641.475 39.3392C641.682 39.263 641.89 39.1868 642.092 39.108C644.025 38.3701 645.769 37.5874 647.344 36.7523C647.568 36.6288 647.788 36.5107 648.006 36.3899C648.513 36.1062 649.002 35.82 649.472 35.5206C649.624 35.4286 649.771 35.3341 649.918 35.2369C650.856 34.6329 651.725 34 652.539 33.3276C654.012 32.1537 655.601 30.1656 655.228 28.4218C654.984 27.2951 654.012 26.5046 652.34 26.0791L652.347 26.0765ZM618.219 39.2105C618.054 38.8691 618.088 38.0208 620.144 36.2218C620.554 35.883 620.985 35.5495 621.436 35.2264V35.3236C621.436 35.5442 621.442 35.7596 621.452 35.9697C621.457 36.1351 621.468 36.2979 621.481 36.4634V36.4686C621.494 36.6499 621.507 36.8232 621.528 37.0018C621.533 37.0701 621.541 37.1357 621.549 37.204C621.604 37.7266 621.683 38.2335 621.793 38.7325C621.896 39.2394 622.03 39.7331 622.19 40.2111C620.142 40.2058 618.547 39.9038 618.216 39.2157L618.219 39.2105ZM650.824 31.4C650.512 31.6153 650.191 31.8228 649.866 32.0198C649.81 32.0539 649.753 32.0907 649.698 32.1222C649.6 31.6074 649.482 31.1058 649.33 30.6147C649.185 30.121 649.012 29.643 648.815 29.1781C648.723 28.9549 648.626 28.7422 648.518 28.5268V28.5216C648.447 28.3771 648.374 28.2353 648.298 28.0909C648.298 28.0856 648.292 28.0856 648.292 28.083C648.182 27.8755 648.069 27.668 647.943 27.4658L647.791 27.2242C647.956 27.2242 648.119 27.2294 648.285 27.2373C648.361 27.2426 648.44 27.2426 648.516 27.2452V27.2505C648.807 27.2636 649.099 27.2793 649.382 27.3004C652.431 27.6208 652.951 28.3824 653.03 28.6949C653.19 29.3068 652.384 30.2943 650.822 31.3973L650.824 31.4Z" fill="#BFBBBF" fill-opacity="0.8"/>
<path d="M632.551 43.4044H632.546C632.546 43.4044 632.532 43.4096 632.53 43.4096C632.467 43.4227 632.406 43.4359 632.349 43.4438C629.612 43.9874 627.109 44.2631 624.701 44.292C624.596 44.2973 624.478 44.2999 624.352 44.2999C624.68 44.7254 625.034 45.1403 625.423 45.5369C628.083 48.2892 631.508 49.6654 635.7 49.6654C639.891 49.6654 643.313 48.2892 645.976 45.5369C648.248 43.189 649.543 40.3474 649.868 37.0042C647.838 38.249 645.532 39.3652 642.859 40.3947C639.198 41.7235 635.715 42.7977 632.548 43.4044H632.551Z" fill="#BFBBBF" fill-opacity="0.8"/>
<path d="M728.009 34.391L725.997 27.0611L718.423 29.1411L722.31 22.3154L715.705 18.5546L711.818 25.3803L709.741 17.8062L702.408 19.8179L704.488 27.392L697.663 23.5051L693.902 30.1102L700.727 33.9971L693.153 36.0744L695.165 43.4044L702.739 41.327L698.852 48.1526L705.457 51.9135L709.344 45.0878L711.422 52.6619L718.754 50.6502L716.674 43.0761L723.5 46.9629L727.261 40.3553L720.435 36.471L728.009 34.391Z" fill="#BFBBBF" fill-opacity="0.8"/>
<path d="M800.383 35.2341C795.619 35.2341 791.306 37.167 788.184 40.287C785.061 43.4097 783.131 47.7246 783.131 52.486C783.131 42.958 775.407 35.2341 765.879 35.2341C770.643 35.2341 774.958 33.3038 778.078 30.1812C781.201 27.0586 783.131 22.7462 783.131 17.9822C783.131 22.7462 785.064 27.0612 788.184 30.1812C791.306 33.3038 795.621 35.2341 800.383 35.2341Z" fill="#BFBBBF" fill-opacity="0.8"/>
<path d="M867.759 20.481V49.1965H859.57V34.4606L844.043 49.987L838.252 44.1961L853.776 28.6697H838.468V20.481H867.759Z" fill="#BFBBBF" fill-opacity="0.8"/>
<path d="M355.89 26.0765L355.875 26.0713C354.561 25.785 353.117 25.6826 351.468 25.7719C351.386 25.7771 351.313 25.7797 351.231 25.785C350.935 25.8008 350.646 25.827 350.354 25.8559C350.215 25.6878 350.076 25.5224 349.929 25.3569L349.924 25.3517C349.797 25.2072 349.666 25.068 349.53 24.9288C346.864 22.1791 343.439 20.803 339.25 20.803C335.061 20.803 331.634 22.1791 328.974 24.9315C327.125 26.8408 325.917 29.0783 325.355 31.6495C325.221 32.2535 325.124 32.8733 325.063 33.5167C325.037 33.5299 325.013 33.5456 324.987 33.5587C324.916 33.6008 324.843 33.6402 324.772 33.6822C324.071 34.0787 323.375 34.5147 322.644 35.0111C320.331 36.6105 319.275 38.3123 319.672 39.804C320.097 41.4034 322.14 42.467 325.279 42.7297C326.085 42.7901 326.904 42.8216 327.739 42.8216H327.747C328.152 42.8216 328.559 42.8137 328.971 42.7953C329.118 42.7953 329.268 42.7874 329.415 42.7796C329.636 42.7717 329.859 42.7585 330.082 42.7428C330.347 42.727 330.618 42.706 330.883 42.6798C331.424 42.6377 331.968 42.5773 332.524 42.5012C332.803 42.467 333.081 42.425 333.365 42.383C333.635 42.3462 333.906 42.299 334.179 42.2517C334.216 42.2517 334.25 42.2438 334.284 42.2359C334.492 42.2018 334.699 42.1676 334.909 42.1256C335.201 42.0757 335.495 42.0206 335.792 41.9602C337.627 41.5977 339.563 41.1066 341.622 40.5C342.812 40.1244 343.943 39.741 345.018 39.3392C345.225 39.263 345.433 39.1868 345.635 39.108C347.568 38.3701 349.312 37.5874 350.887 36.7523C351.111 36.6288 351.331 36.5107 351.549 36.3899C352.056 36.1062 352.545 35.82 353.015 35.5206C353.167 35.4286 353.314 35.3341 353.461 35.2369C354.399 34.6329 355.268 34 356.082 33.3276C357.555 32.1537 359.144 30.1656 358.771 28.4218C358.527 27.2951 357.555 26.5046 355.882 26.0791L355.89 26.0765ZM321.762 39.2105C321.597 38.8691 321.631 38.0208 323.687 36.2218C324.097 35.883 324.528 35.5495 324.979 35.2264V35.3236C324.979 35.5442 324.984 35.7596 324.995 35.9697C325 36.1351 325.011 36.2979 325.024 36.4634V36.4686C325.037 36.6499 325.05 36.8232 325.071 37.0018C325.076 37.0701 325.084 37.1357 325.092 37.204C325.147 37.7266 325.226 38.2335 325.336 38.7325C325.439 39.2394 325.573 39.7331 325.733 40.2111C323.684 40.2058 322.09 39.9038 321.759 39.2157L321.762 39.2105ZM354.367 31.4C354.055 31.6153 353.734 31.8228 353.409 32.0198C353.353 32.0539 353.296 32.0907 353.24 32.1222C353.143 31.6074 353.025 31.1058 352.873 30.6147C352.728 30.121 352.555 29.643 352.358 29.1781C352.266 28.9549 352.169 28.7422 352.061 28.5268V28.5216C351.99 28.3771 351.917 28.2353 351.841 28.0909C351.841 28.0856 351.835 28.0856 351.835 28.083C351.725 27.8755 351.612 27.668 351.486 27.4658L351.334 27.2242C351.499 27.2242 351.662 27.2294 351.828 27.2373C351.904 27.2426 351.982 27.2426 352.059 27.2452V27.2505C352.35 27.2636 352.642 27.2793 352.925 27.3004C355.974 27.6208 356.494 28.3824 356.573 28.6949C356.733 29.3068 355.927 30.2943 354.365 31.3973L354.367 31.4Z" fill="#BFBBBF" fill-opacity="0.8"/>
<path d="M336.093 43.4044H336.087C336.087 43.4044 336.074 43.4096 336.072 43.4096C336.009 43.4227 335.948 43.4359 335.891 43.4438C333.154 43.9874 330.651 44.2631 328.243 44.292C328.138 44.2973 328.02 44.2999 327.894 44.2999C328.222 44.7254 328.576 45.1403 328.965 45.5369C331.625 48.2892 335.05 49.6654 339.242 49.6654C343.433 49.6654 346.855 48.2892 349.518 45.5369C351.79 43.189 353.085 40.3474 353.41 37.0042C351.38 38.249 349.074 39.3652 346.401 40.3947C342.74 41.7235 339.257 42.7977 336.09 43.4044H336.093Z" fill="#BFBBBF" fill-opacity="0.8"/>
<path d="M431.552 34.391L429.54 27.0611L421.966 29.1411L425.853 22.3154L419.248 18.5546L415.361 25.3803L413.284 17.8062L405.951 19.8179L408.031 27.392L401.206 23.5051L397.445 30.1102L404.27 33.9971L396.696 36.0744L398.708 43.4044L406.282 41.327L402.395 48.1526L409 51.9135L412.887 45.0878L414.965 52.6619L422.297 50.6502L420.217 43.0761L427.043 46.9629L430.804 40.3553L423.978 36.471L431.552 34.391Z" fill="#BFBBBF" fill-opacity="0.8"/>
<path d="M503.926 35.2341C499.162 35.2341 494.849 37.167 491.727 40.287C488.604 43.4097 486.674 47.7246 486.674 52.486C486.674 42.958 478.95 35.2341 469.422 35.2341C474.186 35.2341 478.501 33.3038 481.621 30.1812C484.744 27.0586 486.674 22.7462 486.674 17.9822C486.674 22.7462 488.607 27.0612 491.727 30.1812C494.849 33.3038 499.164 35.2341 503.926 35.2341Z" fill="#BFBBBF" fill-opacity="0.8"/>
<path d="M571.301 20.481V49.1965H563.113V34.4606L547.586 49.987L541.795 44.1961L557.319 28.6697H542.011V20.481H571.301Z" fill="#BFBBBF" fill-opacity="0.8"/>
<path d="M1813.76 26.0763L1813.75 26.071C1812.43 25.7848 1810.99 25.6823 1809.34 25.7716C1809.26 25.7769 1809.18 25.7795 1809.1 25.7848C1808.81 25.8005 1808.52 25.8268 1808.23 25.8557C1808.09 25.6876 1807.95 25.5221 1807.8 25.3567L1807.79 25.3514C1807.67 25.207 1807.54 25.0678 1807.4 24.9286C1804.73 22.1789 1801.31 20.8027 1797.12 20.8027C1792.93 20.8027 1789.51 22.1789 1786.84 24.9312C1785 26.8405 1783.79 29.0781 1783.23 31.6492C1783.09 32.2532 1782.99 32.873 1782.93 33.5165C1782.91 33.5296 1782.88 33.5454 1782.86 33.5585C1782.79 33.6005 1782.71 33.6399 1782.64 33.6819C1781.94 34.0785 1781.25 34.5145 1780.52 35.0108C1778.2 36.6102 1777.15 38.312 1777.54 39.8038C1777.97 41.4032 1780.01 42.4668 1783.15 42.7294C1783.96 42.7898 1784.78 42.8213 1785.61 42.8213H1785.62C1786.02 42.8213 1786.43 42.8135 1786.84 42.7951C1786.99 42.7951 1787.14 42.7872 1787.29 42.7793C1787.51 42.7714 1787.73 42.7583 1787.95 42.7425C1788.22 42.7268 1788.49 42.7058 1788.75 42.6795C1789.3 42.6375 1789.84 42.5771 1790.4 42.5009C1790.67 42.4668 1790.95 42.4248 1791.24 42.3827C1791.51 42.346 1791.78 42.2987 1792.05 42.2514C1792.09 42.2514 1792.12 42.2436 1792.16 42.2357C1792.36 42.2015 1792.57 42.1674 1792.78 42.1254C1793.07 42.0755 1793.37 42.0203 1793.66 41.9599C1795.5 41.5975 1797.43 41.1064 1799.49 40.4997C1800.68 40.1242 1801.81 39.7407 1802.89 39.3389C1803.1 39.2627 1803.3 39.1866 1803.51 39.1078C1805.44 38.3698 1807.18 37.5872 1808.76 36.752C1808.98 36.6286 1809.2 36.5104 1809.42 36.3896C1809.93 36.106 1810.42 35.8197 1810.89 35.5203C1811.04 35.4284 1811.19 35.3339 1811.33 35.2367C1812.27 34.6326 1813.14 33.9997 1813.95 33.3274C1815.43 32.1534 1817.02 30.1654 1816.64 28.4215C1816.4 27.2949 1815.43 26.5044 1813.75 26.0789L1813.76 26.0763ZM1779.63 39.2102C1779.47 38.8688 1779.5 38.0205 1781.56 36.2215C1781.97 35.8827 1782.4 35.5492 1782.85 35.2262V35.3234C1782.85 35.544 1782.86 35.7593 1782.87 35.9694C1782.87 36.1349 1782.88 36.2977 1782.89 36.4631V36.4684C1782.91 36.6496 1782.92 36.8229 1782.94 37.0015C1782.95 37.0698 1782.96 37.1355 1782.96 37.2038C1783.02 37.7264 1783.1 38.2333 1783.21 38.7322C1783.31 39.2391 1783.44 39.7328 1783.6 40.2108C1781.56 40.2056 1779.96 39.9036 1779.63 39.2155L1779.63 39.2102ZM1812.24 31.3997C1811.93 31.6151 1811.61 31.8225 1811.28 32.0195C1811.22 32.0537 1811.17 32.0904 1811.11 32.1219C1811.01 31.6072 1810.9 31.1056 1810.74 30.6145C1810.6 30.1207 1810.43 29.6427 1810.23 29.1779C1810.14 28.9547 1810.04 28.7419 1809.93 28.5266V28.5213C1809.86 28.3769 1809.79 28.2351 1809.71 28.0906C1809.71 28.0854 1809.71 28.0854 1809.71 28.0827C1809.6 27.8753 1809.48 27.6678 1809.36 27.4656L1809.2 27.224C1809.37 27.224 1809.53 27.2292 1809.7 27.2371C1809.77 27.2423 1809.85 27.2423 1809.93 27.245V27.2502C1810.22 27.2633 1810.51 27.2791 1810.8 27.3001C1813.85 27.6205 1814.37 28.3821 1814.44 28.6947C1814.6 29.3066 1813.8 30.2941 1812.24 31.3971L1812.24 31.3997Z" fill="#BFBBBF" fill-opacity="0.8"/>
<path d="M1793.96 43.4041H1793.96C1793.96 43.4041 1793.94 43.4094 1793.94 43.4094C1793.88 43.4225 1793.82 43.4356 1793.76 43.4435C1791.02 43.9871 1788.52 44.2629 1786.11 44.2918C1786.01 44.297 1785.89 44.2997 1785.76 44.2997C1786.09 44.7251 1786.45 45.1401 1786.84 45.5366C1789.5 48.289 1792.92 49.6651 1797.11 49.6651C1801.3 49.6651 1804.73 48.289 1807.39 45.5366C1809.66 43.1888 1810.95 40.3471 1811.28 37.0039C1809.25 38.2488 1806.94 39.3649 1804.27 40.3944C1800.61 41.7233 1797.13 42.7974 1793.96 43.4041H1793.96Z" fill="#BFBBBF" fill-opacity="0.8"/>
<path d="M1889.42 34.3908L1887.41 27.0609L1879.84 29.1409L1883.72 22.3152L1877.12 18.5544L1873.23 25.3801L1871.15 17.8059L1863.82 19.8176L1865.9 27.3918L1859.08 23.5049L1855.32 30.11L1862.14 33.9968L1854.57 36.0742L1856.58 43.4041L1864.15 41.3267L1860.27 48.1524L1866.87 51.9132L1870.76 45.0875L1872.84 52.6617L1880.17 50.65L1878.09 43.0758L1884.91 46.9627L1888.67 40.355L1881.85 36.4708L1889.42 34.3908Z" fill="#BFBBBF" fill-opacity="0.8"/>
<path d="M1961.8 35.2339C1957.03 35.2339 1952.72 37.1668 1949.6 40.2868C1946.48 43.4094 1944.54 47.7244 1944.54 52.4858C1944.54 42.9577 1936.82 35.2339 1927.29 35.2339C1932.06 35.2339 1936.37 33.3036 1939.49 30.1809C1942.61 27.0583 1944.54 22.746 1944.54 17.9819C1944.54 22.746 1946.48 27.0609 1949.6 30.1809C1952.72 33.3036 1957.04 35.2339 1961.8 35.2339Z" fill="#BFBBBF" fill-opacity="0.8"/>
<path d="M946.011 26.0763L945.996 26.071C944.683 25.7848 943.238 25.6823 941.589 25.7716C941.507 25.7769 941.434 25.7795 941.352 25.7848C941.056 25.8005 940.767 25.8268 940.475 25.8557C940.336 25.6876 940.197 25.5221 940.05 25.3567L940.045 25.3514C939.919 25.207 939.787 25.0678 939.651 24.9286C936.985 22.1789 933.56 20.8027 929.371 20.8027C925.183 20.8027 921.755 22.1789 919.095 24.9312C917.246 26.8405 916.038 29.0781 915.476 31.6492C915.342 32.2532 915.245 32.873 915.184 33.5165C915.158 33.5296 915.134 33.5454 915.108 33.5585C915.037 33.6005 914.964 33.6399 914.893 33.6819C914.192 34.0785 913.496 34.5145 912.766 35.0108C910.452 36.6102 909.396 38.312 909.793 39.8038C910.218 41.4032 912.261 42.4668 915.4 42.7294C916.206 42.7898 917.025 42.8213 917.861 42.8213H917.868C918.273 42.8213 918.68 42.8135 919.092 42.7951C919.239 42.7951 919.389 42.7872 919.536 42.7793C919.757 42.7714 919.98 42.7583 920.203 42.7425C920.468 42.7268 920.739 42.7058 921.004 42.6795C921.545 42.6375 922.089 42.5771 922.646 42.5009C922.924 42.4668 923.202 42.4248 923.486 42.3827C923.757 42.346 924.027 42.2987 924.3 42.2514C924.337 42.2514 924.371 42.2436 924.405 42.2357C924.613 42.2015 924.82 42.1674 925.03 42.1254C925.322 42.0755 925.616 42.0203 925.913 41.9599C927.748 41.5975 929.684 41.1064 931.743 40.4997C932.933 40.1242 934.065 39.7407 935.139 39.3389C935.346 39.2627 935.554 39.1866 935.756 39.1078C937.689 38.3698 939.433 37.5872 941.008 36.752C941.232 36.6286 941.452 36.5104 941.67 36.3896C942.177 36.106 942.666 35.8197 943.136 35.5203C943.288 35.4284 943.435 35.3339 943.582 35.2367C944.52 34.6326 945.389 33.9997 946.203 33.3274C947.677 32.1534 949.265 30.1654 948.892 28.4215C948.648 27.2949 947.677 26.5044 946.004 26.0789L946.011 26.0763ZM911.883 39.2102C911.718 38.8688 911.752 38.0205 913.808 36.2215C914.218 35.8827 914.649 35.5492 915.1 35.2262V35.3234C915.1 35.544 915.106 35.7593 915.116 35.9694C915.121 36.1349 915.132 36.2977 915.145 36.4631V36.4684C915.158 36.6496 915.171 36.8229 915.192 37.0015C915.198 37.0698 915.205 37.1355 915.213 37.2038C915.268 37.7264 915.347 38.2333 915.458 38.7322C915.56 39.2391 915.694 39.7328 915.854 40.2108C913.806 40.2056 912.211 39.9036 911.881 39.2155L911.883 39.2102ZM944.488 31.3997C944.176 31.6151 943.855 31.8225 943.53 32.0195C943.474 32.0537 943.417 32.0904 943.362 32.1219C943.264 31.6072 943.146 31.1056 942.994 30.6145C942.849 30.1207 942.676 29.6427 942.479 29.1779C942.387 28.9547 942.29 28.7419 942.182 28.5266V28.5213C942.111 28.3769 942.038 28.2351 941.962 28.0906C941.962 28.0854 941.957 28.0854 941.957 28.0827C941.846 27.8753 941.733 27.6678 941.607 27.4656L941.455 27.224C941.62 27.224 941.783 27.2292 941.949 27.2371C942.025 27.2423 942.104 27.2423 942.18 27.245V27.2502C942.471 27.2633 942.763 27.2791 943.046 27.3001C946.096 27.6205 946.616 28.3821 946.694 28.6947C946.855 29.3066 946.048 30.2941 944.486 31.3971L944.488 31.3997Z" fill="#BFBBBF" fill-opacity="0.8"/>
<path d="M926.213 43.4041H926.208C926.208 43.4041 926.194 43.4094 926.192 43.4094C926.129 43.4225 926.068 43.4356 926.011 43.4435C923.274 43.9871 920.771 44.2629 918.363 44.2918C918.258 44.297 918.14 44.2997 918.014 44.2997C918.342 44.7251 918.697 45.1401 919.085 45.5366C921.746 48.289 925.17 49.6651 929.362 49.6651C933.553 49.6651 936.975 48.289 939.638 45.5366C941.91 43.1888 943.205 40.3471 943.53 37.0039C941.5 38.2488 939.194 39.3649 936.521 40.3944C932.86 41.7233 929.378 42.7974 926.21 43.4041H926.213Z" fill="#BFBBBF" fill-opacity="0.8"/>
<path d="M1021.67 34.3908L1019.66 27.0609L1012.09 29.1409L1015.97 22.3152L1009.37 18.5544L1005.48 25.3801L1003.4 17.8059L996.072 19.8176L998.152 27.3918L991.327 23.5049L987.566 30.11L994.392 33.9968L986.817 36.0742L988.829 43.4041L996.403 41.3267L992.516 48.1524L999.121 51.9132L1003.01 45.0875L1005.09 52.6617L1012.42 50.65L1010.34 43.0758L1017.16 46.9627L1020.92 40.355L1014.1 36.4708L1021.67 34.3908Z" fill="#BFBBBF" fill-opacity="0.8"/>
<path d="M1094.05 35.2339C1089.28 35.2339 1084.97 37.1668 1081.85 40.2868C1078.73 43.4094 1076.79 47.7244 1076.79 52.4858C1076.79 42.9577 1069.07 35.2339 1059.54 35.2339C1064.31 35.2339 1068.62 33.3036 1071.74 30.1809C1074.86 27.0583 1076.79 22.746 1076.79 17.9819C1076.79 22.746 1078.73 27.0609 1081.85 30.1809C1084.97 33.3036 1089.29 35.2339 1094.05 35.2339Z" fill="#BFBBBF" fill-opacity="0.8"/>
<path d="M1161.42 20.4807V49.1963H1153.23V34.4603L1137.71 49.9868L1131.92 44.1959L1147.44 28.6694H1132.13V20.4807H1161.42Z" fill="#BFBBBF" fill-opacity="0.8"/>
<path d="M1538.93 26.0763L1538.92 26.071C1537.6 25.7848 1536.16 25.6823 1534.51 25.7716C1534.43 25.7769 1534.36 25.7795 1534.27 25.7848C1533.98 25.8005 1533.69 25.8268 1533.4 25.8557C1533.26 25.6876 1533.12 25.5221 1532.97 25.3567L1532.97 25.3514C1532.84 25.207 1532.71 25.0678 1532.57 24.9286C1529.91 22.1789 1526.48 20.8027 1522.29 20.8027C1518.1 20.8027 1514.68 22.1789 1512.02 24.9312C1510.17 26.8405 1508.96 29.0781 1508.4 31.6492C1508.26 32.2532 1508.17 32.873 1508.11 33.5165C1508.08 33.5296 1508.06 33.5454 1508.03 33.5585C1507.96 33.6005 1507.89 33.6399 1507.81 33.6819C1507.11 34.0785 1506.42 34.5145 1505.69 35.0108C1503.37 36.6102 1502.32 38.312 1502.71 39.8038C1503.14 41.4032 1505.18 42.4668 1508.32 42.7294C1509.13 42.7898 1509.95 42.8213 1510.78 42.8213H1510.79C1511.19 42.8213 1511.6 42.8135 1512.01 42.7951C1512.16 42.7951 1512.31 42.7872 1512.46 42.7793C1512.68 42.7714 1512.9 42.7583 1513.13 42.7425C1513.39 42.7268 1513.66 42.7058 1513.93 42.6795C1514.47 42.6375 1515.01 42.5771 1515.57 42.5009C1515.85 42.4668 1516.12 42.4248 1516.41 42.3827C1516.68 42.346 1516.95 42.2987 1517.22 42.2514C1517.26 42.2514 1517.29 42.2436 1517.33 42.2357C1517.53 42.2015 1517.74 42.1674 1517.95 42.1254C1518.24 42.0755 1518.54 42.0203 1518.83 41.9599C1520.67 41.5975 1522.61 41.1064 1524.66 40.4997C1525.85 40.1242 1526.99 39.7407 1528.06 39.3389C1528.27 39.2627 1528.48 39.1866 1528.68 39.1078C1530.61 38.3698 1532.35 37.5872 1533.93 36.752C1534.15 36.6286 1534.37 36.5104 1534.59 36.3896C1535.1 36.106 1535.59 35.8197 1536.06 35.5203C1536.21 35.4284 1536.36 35.3339 1536.5 35.2367C1537.44 34.6326 1538.31 33.9997 1539.13 33.3274C1540.6 32.1534 1542.19 30.1654 1541.81 28.4215C1541.57 27.2949 1540.6 26.5044 1538.93 26.0789L1538.93 26.0763ZM1504.81 39.2102C1504.64 38.8688 1504.67 38.0205 1506.73 36.2215C1507.14 35.8827 1507.57 35.5492 1508.02 35.2262V35.3234C1508.02 35.544 1508.03 35.7593 1508.04 35.9694C1508.04 36.1349 1508.05 36.2977 1508.07 36.4631V36.4684C1508.08 36.6496 1508.09 36.8229 1508.11 37.0015C1508.12 37.0698 1508.13 37.1355 1508.14 37.2038C1508.19 37.7264 1508.27 38.2333 1508.38 38.7322C1508.48 39.2391 1508.62 39.7328 1508.78 40.2108C1506.73 40.2056 1505.13 39.9036 1504.8 39.2155L1504.81 39.2102ZM1537.41 31.3997C1537.1 31.6151 1536.78 31.8225 1536.45 32.0195C1536.4 32.0537 1536.34 32.0904 1536.28 32.1219C1536.19 31.6072 1536.07 31.1056 1535.92 30.6145C1535.77 30.1207 1535.6 29.6427 1535.4 29.1779C1535.31 28.9547 1535.21 28.7419 1535.1 28.5266V28.5213C1535.03 28.3769 1534.96 28.2351 1534.88 28.0906C1534.88 28.0854 1534.88 28.0854 1534.88 28.0827C1534.77 27.8753 1534.66 27.6678 1534.53 27.4656L1534.38 27.224C1534.54 27.224 1534.71 27.2292 1534.87 27.2371C1534.95 27.2423 1535.03 27.2423 1535.1 27.245V27.2502C1535.39 27.2633 1535.68 27.2791 1535.97 27.3001C1539.02 27.6205 1539.54 28.3821 1539.62 28.6947C1539.78 29.3066 1538.97 30.2941 1537.41 31.3971L1537.41 31.3997Z" fill="#BFBBBF" fill-opacity="0.8"/>
<path d="M1519.13 43.4041H1519.13C1519.13 43.4041 1519.12 43.4094 1519.11 43.4094C1519.05 43.4225 1518.99 43.4356 1518.93 43.4435C1516.2 43.9871 1513.69 44.2629 1511.28 44.2918C1511.18 44.297 1511.06 44.2997 1510.94 44.2997C1511.26 44.7251 1511.62 45.1401 1512.01 45.5366C1514.67 48.289 1518.09 49.6651 1522.28 49.6651C1526.48 49.6651 1529.9 48.289 1532.56 45.5366C1534.83 43.1888 1536.13 40.3471 1536.45 37.0039C1534.42 38.2488 1532.12 39.3649 1529.44 40.3944C1525.78 41.7233 1522.3 42.7974 1519.13 43.4041H1519.13Z" fill="#BFBBBF" fill-opacity="0.8"/>
<path d="M1614.6 34.3908L1612.58 27.0609L1605.01 29.1409L1608.9 22.3152L1602.29 18.5544L1598.4 25.3801L1596.33 17.8059L1588.99 19.8176L1591.07 27.3918L1584.25 23.5049L1580.49 30.11L1587.31 33.9968L1579.74 36.0742L1581.75 43.4041L1589.33 41.3267L1585.44 48.1524L1592.04 51.9132L1595.93 45.0875L1598.01 52.6617L1605.34 50.65L1603.26 43.0758L1610.09 46.9627L1613.85 40.355L1607.02 36.4708L1614.6 34.3908Z" fill="#BFBBBF" fill-opacity="0.8"/>
<path d="M1686.97 35.2339C1682.2 35.2339 1677.89 37.1668 1674.77 40.2868C1671.65 43.4094 1669.72 47.7244 1669.72 52.4858C1669.72 42.9577 1661.99 35.2339 1652.46 35.2339C1657.23 35.2339 1661.54 33.3036 1664.66 30.1809C1667.79 27.0583 1669.72 22.746 1669.72 17.9819C1669.72 22.746 1671.65 27.0609 1674.77 30.1809C1677.89 33.3036 1682.21 35.2339 1686.97 35.2339Z" fill="#BFBBBF" fill-opacity="0.8"/>
<path d="M1754.34 20.4807V49.1963H1746.16V34.4603L1730.63 49.9868L1724.84 44.1959L1740.36 28.6694H1725.05V20.4807H1754.34Z" fill="#BFBBBF" fill-opacity="0.8"/>
<path d="M1242.47 26.0763L1242.46 26.071C1241.14 25.7848 1239.7 25.6823 1238.05 25.7716C1237.97 25.7769 1237.89 25.7795 1237.81 25.7848C1237.52 25.8005 1237.23 25.8268 1236.94 25.8557C1236.8 25.6876 1236.66 25.5221 1236.51 25.3567L1236.51 25.3514C1236.38 25.207 1236.25 25.0678 1236.11 24.9286C1233.45 22.1789 1230.02 20.8027 1225.83 20.8027C1221.64 20.8027 1218.22 22.1789 1215.56 24.9312C1213.71 26.8405 1212.5 29.0781 1211.94 31.6492C1211.8 32.2532 1211.71 32.873 1211.65 33.5165C1211.62 33.5296 1211.6 33.5454 1211.57 33.5585C1211.5 33.6005 1211.42 33.6399 1211.35 33.6819C1210.65 34.0785 1209.96 34.5145 1209.23 35.0108C1206.91 36.6102 1205.86 38.312 1206.25 39.8038C1206.68 41.4032 1208.72 42.4668 1211.86 42.7294C1212.67 42.7898 1213.49 42.8213 1214.32 42.8213H1214.33C1214.73 42.8213 1215.14 42.8135 1215.55 42.7951C1215.7 42.7951 1215.85 42.7872 1216 42.7793C1216.22 42.7714 1216.44 42.7583 1216.66 42.7425C1216.93 42.7268 1217.2 42.7058 1217.47 42.6795C1218.01 42.6375 1218.55 42.5771 1219.11 42.5009C1219.38 42.4668 1219.66 42.4248 1219.95 42.3827C1220.22 42.346 1220.49 42.2987 1220.76 42.2514C1220.8 42.2514 1220.83 42.2436 1220.87 42.2357C1221.07 42.2015 1221.28 42.1674 1221.49 42.1254C1221.78 42.0755 1222.08 42.0203 1222.37 41.9599C1224.21 41.5975 1226.14 41.1064 1228.2 40.4997C1229.39 40.1242 1230.53 39.7407 1231.6 39.3389C1231.81 39.2627 1232.01 39.1866 1232.22 39.1078C1234.15 38.3698 1235.89 37.5872 1237.47 36.752C1237.69 36.6286 1237.91 36.5104 1238.13 36.3896C1238.64 36.106 1239.13 35.8197 1239.6 35.5203C1239.75 35.4284 1239.9 35.3339 1240.04 35.2367C1240.98 34.6326 1241.85 33.9997 1242.66 33.3274C1244.14 32.1534 1245.73 30.1654 1245.35 28.4215C1245.11 27.2949 1244.14 26.5044 1242.46 26.0789L1242.47 26.0763ZM1208.34 39.2102C1208.18 38.8688 1208.21 38.0205 1210.27 36.2215C1210.68 35.8827 1211.11 35.5492 1211.56 35.2262V35.3234C1211.56 35.544 1211.57 35.7593 1211.58 35.9694C1211.58 36.1349 1211.59 36.2977 1211.61 36.4631V36.4684C1211.62 36.6496 1211.63 36.8229 1211.65 37.0015C1211.66 37.0698 1211.67 37.1355 1211.67 37.2038C1211.73 37.7264 1211.81 38.2333 1211.92 38.7322C1212.02 39.2391 1212.15 39.7328 1212.32 40.2108C1210.27 40.2056 1208.67 39.9036 1208.34 39.2155L1208.34 39.2102ZM1240.95 31.3997C1240.64 31.6151 1240.32 31.8225 1239.99 32.0195C1239.94 32.0537 1239.88 32.0904 1239.82 32.1219C1239.73 31.6072 1239.61 31.1056 1239.45 30.6145C1239.31 30.1207 1239.14 29.6427 1238.94 29.1779C1238.85 28.9547 1238.75 28.7419 1238.64 28.5266V28.5213C1238.57 28.3769 1238.5 28.2351 1238.42 28.0906C1238.42 28.0854 1238.42 28.0854 1238.42 28.0827C1238.31 27.8753 1238.19 27.6678 1238.07 27.4656L1237.92 27.224C1238.08 27.224 1238.24 27.2292 1238.41 27.2371C1238.49 27.2423 1238.56 27.2423 1238.64 27.245V27.2502C1238.93 27.2633 1239.22 27.2791 1239.51 27.3001C1242.56 27.6205 1243.08 28.3821 1243.16 28.6947C1243.32 29.3066 1242.51 30.2941 1240.95 31.3971L1240.95 31.3997Z" fill="#BFBBBF" fill-opacity="0.8"/>
<path d="M1222.67 43.4041H1222.67C1222.67 43.4041 1222.66 43.4094 1222.65 43.4094C1222.59 43.4225 1222.53 43.4356 1222.47 43.4435C1219.74 43.9871 1217.23 44.2629 1214.82 44.2918C1214.72 44.297 1214.6 44.2997 1214.47 44.2997C1214.8 44.7251 1215.16 45.1401 1215.55 45.5366C1218.21 48.289 1221.63 49.6651 1225.82 49.6651C1230.01 49.6651 1233.44 48.289 1236.1 45.5366C1238.37 43.1888 1239.67 40.3471 1239.99 37.0039C1237.96 38.2488 1235.66 39.3649 1232.98 40.3944C1229.32 41.7233 1225.84 42.7974 1222.67 43.4041H1222.67Z" fill="#BFBBBF" fill-opacity="0.8"/>
<path d="M1318.13 34.3908L1316.12 27.0609L1308.55 29.1409L1312.44 22.3152L1305.83 18.5544L1301.94 25.3801L1299.87 17.8059L1292.53 19.8176L1294.61 27.3918L1287.79 23.5049L1284.03 30.11L1290.85 33.9968L1283.28 36.0742L1285.29 43.4041L1292.86 41.3267L1288.98 48.1524L1295.58 51.9132L1299.47 45.0875L1301.55 52.6617L1308.88 50.65L1306.8 43.0758L1313.62 46.9627L1317.39 40.355L1310.56 36.4708L1318.13 34.3908Z" fill="#BFBBBF" fill-opacity="0.8"/>
<path d="M1390.51 35.2339C1385.74 35.2339 1381.43 37.1668 1378.31 40.2868C1375.19 43.4094 1373.26 47.7244 1373.26 52.4858C1373.26 42.9577 1365.53 35.2339 1356 35.2339C1360.77 35.2339 1365.08 33.3036 1368.2 30.1809C1371.33 27.0583 1373.26 22.746 1373.26 17.9819C1373.26 22.746 1375.19 27.0609 1378.31 30.1809C1381.43 33.3036 1385.75 35.2339 1390.51 35.2339Z" fill="#BFBBBF" fill-opacity="0.8"/>
<path d="M1457.88 20.4807V49.1963H1449.69V34.4603L1434.17 49.9868L1428.38 44.1959L1443.9 28.6694H1428.59V20.4807H1457.88Z" fill="#BFBBBF" fill-opacity="0.8"/>
</g>
<defs>
<clipPath id="clip0_333_316">
<rect width="1928" height="70" fill="white"/>
</clipPath>
</defs>
</svg>
