<svg width="246" height="37" viewBox="0 0 246 37" fill="none" xmlns="http://www.w3.org/2000/svg">
<path d="M7.54303 1.68686C5.18212 3.13459 4.00167 5.57716 4.00167 8.99974V11.6353H0V17.0031H4.00167V30.9978H11.7748V17.0031H17.0312V11.6353H11.7748V9.46004C11.7748 8.01231 12.1609 7.08428 12.9479 6.6611C13.7274 6.24535 15.0935 6.07459 17.0312 6.14883V0.142617C13.0741 -0.280565 9.91136 0.239132 7.55045 1.68686H7.54303Z" fill="#FFF6FE"/>
<path d="M96.7379 1.67917L93.0258 15.2804C92.6026 16.8766 92.172 18.7104 91.7117 20.7669H91.6003L90.2268 15.2284L86.3959 1.68659H79.7661L76.1059 15.2284C75.6827 16.8246 75.267 18.6733 74.8438 20.7669H74.7324L73.4183 15.2804L69.877 1.67917H62.1632L70.7307 30.9901H77.7615L81.7632 16.587C82.1864 15.0205 82.6392 13.3278 83.1367 11.5014H83.248L84.5621 16.587L88.4524 30.9901H95.5426L104.281 1.67917H96.7379Z" fill="#FFF6FE"/>
<path d="M57.4934 6.19253H57.4785C56.0679 5.88071 54.5163 5.76935 52.7493 5.86586C52.6602 5.86586 52.5785 5.87329 52.4969 5.88071C52.1776 5.89556 51.8658 5.92526 51.554 5.95495C51.4055 5.77677 51.257 5.59859 51.0937 5.42041C50.96 5.2645 50.819 5.10859 50.6705 4.9601C47.8122 2.00526 44.1372 0.527832 39.6381 0.527832C35.139 0.527832 31.464 2.00526 28.6057 4.9601C26.6234 7.0092 25.3241 9.40723 24.7228 12.169C24.5743 12.815 24.4704 13.4831 24.411 14.1736C24.3813 14.1884 24.359 14.2033 24.3293 14.2181C24.255 14.2627 24.1734 14.3072 24.0991 14.3518C23.3493 14.775 22.5994 15.2427 21.8125 15.7772C19.3328 17.4922 18.1969 19.3186 18.62 20.9222C19.0804 22.6372 21.2705 23.7806 24.6337 24.0627C25.5023 24.1295 26.3784 24.1592 27.2767 24.1592H27.2841C27.7222 24.1592 28.1528 24.1518 28.5982 24.1295C28.7541 24.1295 28.9175 24.1221 29.0734 24.1147C29.311 24.1072 29.5485 24.0924 29.7861 24.0775C30.0682 24.0627 30.3652 24.0404 30.6473 24.0107C31.2264 23.9662 31.8129 23.8993 32.4069 23.8177C32.7038 23.7806 33.0082 23.736 33.3052 23.6915C33.5947 23.6543 33.8843 23.6024 34.1813 23.5504C34.2184 23.5504 34.2555 23.543 34.2926 23.5356C34.5154 23.4984 34.7381 23.4613 34.9608 23.4168C35.2726 23.3648 35.5919 23.3054 35.9111 23.2386C37.8785 22.8525 39.9573 22.3254 42.1697 21.6721C43.4467 21.2712 44.6643 20.8554 45.815 20.4248C46.0378 20.3431 46.2605 20.2615 46.4758 20.1724C48.5546 19.378 50.4255 18.539 52.1108 17.6407C52.3484 17.5071 52.586 17.3809 52.8235 17.2547C53.3655 16.9503 53.8926 16.6459 54.3975 16.3192C54.5608 16.2227 54.7167 16.1187 54.88 16.0148C55.8823 15.3689 56.8178 14.6859 57.6938 13.9657C59.2752 12.7036 60.9753 10.5728 60.5819 8.70192C60.322 7.49177 59.2752 6.64541 57.486 6.1851L57.4934 6.19253ZM20.8696 20.2912C20.6914 19.9274 20.7285 19.0142 22.9335 17.0839C23.3716 16.7201 23.8319 16.3637 24.3219 16.0148V16.1187C24.3219 16.3563 24.3219 16.5865 24.3367 16.8092C24.3367 16.9874 24.3516 17.1656 24.3664 17.3363C24.3813 17.5368 24.3961 17.7224 24.4184 17.9154C24.4184 17.9897 24.4332 18.0639 24.4407 18.1307C24.5 18.695 24.5891 19.2369 24.7005 19.7715C24.8119 20.3134 24.9529 20.848 25.1237 21.3603C22.9261 21.3603 21.2111 21.0262 20.8622 20.2912H20.8696ZM55.86 11.9092C55.526 12.1393 55.177 12.3621 54.8281 12.5774C54.7687 12.6145 54.7093 12.6516 54.6499 12.6887C54.546 12.1393 54.4197 11.5974 54.2564 11.0703C54.1005 10.5431 53.9149 10.0309 53.707 9.52601C53.6105 9.28844 53.5066 9.05829 53.3878 8.82814C53.3135 8.67223 53.2319 8.51632 53.1502 8.36041C53.1502 8.36041 53.1502 8.36041 53.1502 8.35298C53.0314 8.13026 52.9126 7.90753 52.7716 7.69223L52.6082 7.43238C52.7864 7.43238 52.9646 7.43238 53.1353 7.44723C53.217 7.44723 53.3061 7.44723 53.3878 7.45465C53.6996 7.4695 54.0114 7.49177 54.3158 7.51404C57.5899 7.85556 58.1467 8.67223 58.2284 9.00632C58.3991 9.65965 57.5379 10.7213 55.86 11.9092Z" fill="#FFF6FE"/>
<path d="M36.26 24.79H36.2451C36.1783 24.8049 36.1115 24.8197 36.0521 24.8271C33.1195 25.4137 30.432 25.7032 27.8483 25.7403C27.737 25.7403 27.6108 25.7477 27.4697 25.7477C27.8261 26.208 28.2047 26.6461 28.6205 27.0767C31.4788 30.0315 35.1464 31.509 39.6529 31.509C44.1594 31.509 47.8195 30.0315 50.6853 27.0767C53.1204 24.5599 54.5162 21.5085 54.8652 17.9226C52.6824 19.259 50.2101 20.4543 47.3444 21.5605C43.417 22.9859 39.6751 24.1367 36.2823 24.79H36.26Z" fill="#FFF6FE"/>
<path d="M116.939 5.51228V3.76758H118.238V2.91379C118.238 1.80016 118.624 1.01318 119.389 0.545456C120.154 0.0777289 121.178 -0.0930273 122.463 0.0480333V1.99318C121.832 1.97091 121.394 2.02288 121.141 2.15652C120.889 2.29015 120.763 2.59455 120.763 3.06227V3.76758H122.47V5.51228H120.763V13.278H118.246V5.51228H116.939Z" fill="#FFF6FE"/>
<path d="M132.04 13.2706H129.612V12.157H129.56C129.211 12.6247 128.833 12.9736 128.425 13.1964C128.009 13.4191 127.482 13.5305 126.843 13.5305C125.804 13.5305 124.995 13.2186 124.415 12.6024C123.836 11.9862 123.547 11.1473 123.547 10.1005V3.76016H126.049V9.66985C126.049 10.8206 126.576 11.3923 127.623 11.3923C128.202 11.3923 128.67 11.1918 129.011 10.7983C129.36 10.4049 129.531 9.88516 129.531 9.23925V3.75273H132.048V13.2558L132.04 13.2706Z" fill="#FFF6FE"/>
<path d="M133.117 5.43896V3.7685H134.431V0.806229H136.896V3.7685H138.529V5.43896H136.896V10.48C136.896 11.1111 137.207 11.4229 137.838 11.4229L138.581 11.4006V13.2567C138.195 13.279 137.675 13.2938 137.007 13.2938C136.279 13.2938 135.663 13.1156 135.173 12.7667C134.676 12.4177 134.431 11.8312 134.431 11.0146V5.43896H133.117Z" fill="#FFF6FE"/>
<path d="M148.255 13.2706H145.827V12.157H145.775C145.426 12.6247 145.047 12.9736 144.639 13.1964C144.223 13.4191 143.696 13.5305 143.058 13.5305C142.018 13.5305 141.209 13.2186 140.63 12.6024C140.051 11.9862 139.761 11.1473 139.761 10.1005V3.76016H142.263V9.66985C142.263 10.8206 142.79 11.3923 143.837 11.3923C144.416 11.3923 144.884 11.1918 145.226 10.7983C145.574 10.4049 145.745 9.88516 145.745 9.23925V3.75273H148.262V13.2558L148.255 13.2706Z" fill="#FFF6FE"/>
<path d="M152.308 3.76839V5.29036H152.36C152.657 4.73354 152.984 4.32521 153.34 4.05794C153.697 3.79067 154.15 3.65703 154.691 3.65703C154.951 3.65703 155.152 3.6793 155.285 3.73127V5.93627H155.233C154.38 5.84718 153.697 6.03279 153.177 6.49309C152.657 6.95339 152.397 7.66612 152.397 8.63869V13.2714H149.881V3.76839H152.308Z" fill="#FFF6FE"/>
<path d="M160.579 13.5525C159.05 13.5525 157.839 13.0773 156.963 12.1345C156.087 11.1916 155.649 9.98144 155.649 8.51144C155.649 7.04144 156.087 5.90553 156.963 4.9478C157.839 3.99007 158.968 3.51492 160.334 3.51492C161.826 3.51492 162.984 4.03462 163.801 5.07401C164.618 6.11341 165.026 7.50174 165.026 9.24644H158.136C158.233 10.0037 158.485 10.5828 158.894 10.9986C159.302 11.4143 159.859 11.6222 160.564 11.6222C161.492 11.6222 162.101 11.2361 162.398 10.4566H164.878C164.692 11.3475 164.224 12.0899 163.467 12.6764C162.71 13.2704 161.752 13.5673 160.579 13.5673V13.5525ZM160.378 5.45265C159.153 5.45265 158.418 6.13568 158.173 7.49432H162.398C162.361 6.88553 162.16 6.39553 161.789 6.02432C161.418 5.64568 160.95 5.46008 160.378 5.46008V5.45265Z" fill="#FFF6FE"/>
<path d="M177.38 12.1138C176.452 13.0716 175.264 13.5467 173.802 13.5467C172.339 13.5467 171.151 13.0716 170.223 12.1138C169.295 11.1561 168.835 9.96079 168.835 8.52791C168.835 7.09503 169.295 5.89973 170.223 4.942C171.151 3.98427 172.339 3.50912 173.802 3.50912C175.264 3.50912 176.452 3.98427 177.38 4.942C178.308 5.89973 178.768 7.09503 178.768 8.52791C178.768 9.96079 178.308 11.1561 177.38 12.1138ZM173.802 11.6238C174.551 11.6238 175.145 11.3417 175.568 10.7775C175.992 10.2132 176.207 9.46337 176.207 8.52791C176.207 7.59246 175.992 6.83518 175.568 6.27094C175.145 5.69927 174.551 5.41715 173.802 5.41715C173.052 5.41715 172.443 5.69928 172.02 6.26352C171.597 6.82776 171.389 7.58503 171.389 8.53534C171.389 9.48564 171.597 10.2281 172.02 10.7849C172.443 11.3491 173.029 11.6312 173.802 11.6312V11.6238Z" fill="#FFF6FE"/>
<path d="M179.199 5.51228V3.76758H180.498V2.91379C180.498 1.80016 180.884 1.01318 181.649 0.545456C182.414 0.0777289 183.438 -0.0930273 184.723 0.0480333V1.99318C184.091 1.97091 183.653 2.02288 183.401 2.15652C183.149 2.29015 183.022 2.59455 183.022 3.06227V3.76758H184.73V5.51228H183.022V13.278H180.506V5.51228H179.206H179.199Z" fill="#FFF6FE"/>
<path d="M191.018 13.2703L188.242 3.76723H190.744L191.894 8.17722L192.318 9.95904H192.355C192.488 9.27601 192.629 8.68207 192.763 8.16238L193.951 3.76723H196.104L197.344 8.16238L197.789 9.95904H197.826C197.975 9.29086 198.116 8.69692 198.249 8.17722L199.452 3.76723H201.895L199.059 13.2703H196.757L195.495 8.60041L195.072 6.95222H195.035C194.871 7.54616 194.723 8.09556 194.589 8.60041L193.29 13.2703H191.011H191.018Z" fill="#FFF6FE"/>
<path d="M210.589 12.1138C209.661 13.0716 208.473 13.5467 207.01 13.5467C205.547 13.5467 204.36 13.0716 203.432 12.1138C202.504 11.1561 202.043 9.96079 202.043 8.52791C202.043 7.09503 202.504 5.89973 203.432 4.942C204.36 3.98427 205.547 3.50912 207.01 3.50912C208.473 3.50912 209.661 3.98427 210.589 4.942C211.517 5.89973 211.977 7.09503 211.977 8.52791C211.977 9.96079 211.517 11.1561 210.589 12.1138ZM207.01 11.6238C207.76 11.6238 208.354 11.3417 208.777 10.7775C209.2 10.2132 209.416 9.46337 209.416 8.52791C209.416 7.59246 209.2 6.83518 208.777 6.27094C208.354 5.69927 207.76 5.41715 207.01 5.41715C206.26 5.41715 205.651 5.69928 205.228 6.26352C204.805 6.82776 204.597 7.58503 204.597 8.53534C204.597 9.48564 204.805 10.2281 205.228 10.7849C205.651 11.3491 206.238 11.6312 207.01 11.6312V11.6238Z" fill="#FFF6FE"/>
<path d="M215.57 3.76839V5.29036H215.622C215.919 4.73354 216.246 4.32521 216.602 4.05794C216.959 3.79067 217.411 3.65703 217.953 3.65703C218.213 3.65703 218.414 3.6793 218.547 3.73127V5.93627H218.488C217.634 5.84718 216.951 6.03279 216.431 6.49309C215.912 6.95339 215.652 7.66612 215.652 8.63869V13.2714H213.135V3.76839H215.563H215.57Z" fill="#FFF6FE"/>
<path d="M225.912 13.2697L223.247 8.93393L222.156 10.0624V13.2697H219.654V0.0174103H222.156V7.35256L225.526 3.75923H228.548L225.044 7.37484L228.971 13.2697H225.912Z" fill="#FFF6FE"/>
<path d="M121.349 33.421C119.991 33.421 118.929 33.1241 118.164 32.5227C117.4 31.9213 116.976 31.1047 116.902 30.0653H119.233C119.397 31.1121 120.087 31.6392 121.312 31.6392C121.869 31.6392 122.3 31.5427 122.596 31.3423C122.901 31.1418 123.049 30.882 123.049 30.5479C123.049 30.4217 123.027 30.3103 122.983 30.2138C122.938 30.1173 122.864 30.0282 122.76 29.9465C122.656 29.8648 122.559 29.798 122.485 29.7535C122.403 29.7015 122.262 29.657 122.069 29.605C121.869 29.553 121.72 29.5159 121.616 29.4936C121.513 29.4713 121.334 29.4342 121.082 29.3897C120.83 29.3451 120.651 29.3154 120.555 29.2857C120.035 29.1892 119.612 29.0853 119.285 28.9813C118.959 28.8774 118.617 28.7215 118.253 28.521C117.897 28.3206 117.63 28.0385 117.444 27.6895C117.266 27.3406 117.177 26.9174 117.177 26.42C117.177 25.4326 117.541 24.6753 118.261 24.163C118.981 23.6507 119.916 23.3835 121.052 23.3835C122.277 23.3835 123.235 23.6656 123.933 24.2298C124.631 24.7941 125.032 25.5588 125.128 26.5388H122.849C122.752 25.6107 122.136 25.1504 121.015 25.1504C120.51 25.1504 120.109 25.2395 119.82 25.4251C119.53 25.6107 119.382 25.8706 119.382 26.2047C119.382 26.316 119.404 26.42 119.449 26.5091C119.493 26.5982 119.567 26.6798 119.671 26.7466C119.775 26.8135 119.879 26.8729 119.976 26.91C120.072 26.9545 120.213 26.9991 120.399 27.0362C120.585 27.0807 120.748 27.1179 120.881 27.1476C121.015 27.1773 121.201 27.2144 121.438 27.2589C121.676 27.3035 121.861 27.3332 121.995 27.3629C122.389 27.452 122.715 27.5262 122.968 27.593C123.22 27.6598 123.517 27.7712 123.851 27.9271C124.185 28.083 124.445 28.2538 124.638 28.4468C124.831 28.6398 124.995 28.8997 125.136 29.2263C125.277 29.553 125.351 29.9317 125.351 30.3623C125.351 31.2977 124.98 32.0476 124.252 32.5969C123.517 33.1463 122.552 33.421 121.349 33.421Z" fill="#FFF6FE"/>
<path d="M134.913 33.145H132.486V32.0313H132.434C132.085 32.499 131.706 32.848 131.298 33.0707C130.882 33.2934 130.355 33.4048 129.716 33.4048C128.677 33.4048 127.868 33.093 127.289 32.4768C126.71 31.8606 126.42 31.0216 126.42 29.9748V23.6345H128.922V29.5442C128.922 30.6949 129.449 31.2666 130.496 31.2666C131.075 31.2666 131.543 31.0662 131.884 30.6727C132.233 30.2792 132.404 29.7595 132.404 29.1136V23.6271H134.921V33.1301L134.913 33.145Z" fill="#FFF6FE"/>
<path d="M136.547 33.1451V23.642H138.974V24.919H139.026C139.635 23.8945 140.548 23.3822 141.788 23.3822C142.382 23.3822 142.909 23.5307 143.37 23.8351C143.83 24.1395 144.179 24.5404 144.416 25.0452H144.453C145.144 23.9316 146.094 23.3748 147.304 23.3748C148.292 23.3748 149.064 23.6717 149.613 24.2731C150.163 24.8745 150.437 25.6986 150.437 26.7454V33.1377H147.921V27.1686C147.921 26.0846 147.431 25.5352 146.458 25.5352C145.923 25.5352 145.508 25.7208 145.211 26.0995C144.906 26.4781 144.758 26.983 144.758 27.6066V33.1302H142.241V27.1611C142.241 26.0772 141.751 25.5278 140.778 25.5278C140.274 25.5278 139.858 25.7134 139.546 26.092C139.234 26.4707 139.071 26.9755 139.071 27.5992V33.1228H136.554L136.547 33.1451Z" fill="#FFF6FE"/>
<path d="M151.997 33.1451V23.642H154.424V24.919H154.476C155.085 23.8945 155.998 23.3822 157.238 23.3822C157.832 23.3822 158.359 23.5307 158.819 23.8351C159.28 24.1395 159.629 24.5404 159.866 25.0452H159.903C160.594 23.9316 161.544 23.3748 162.754 23.3748C163.742 23.3748 164.514 23.6717 165.063 24.2731C165.613 24.8745 165.887 25.6986 165.887 26.7454V33.1377H163.37V27.1686C163.37 26.0846 162.88 25.5352 161.908 25.5352C161.373 25.5352 160.958 25.7208 160.661 26.0995C160.356 26.4781 160.208 26.983 160.208 27.6066V33.1302H157.691V27.1611C157.691 26.0772 157.201 25.5278 156.228 25.5278C155.723 25.5278 155.308 25.7134 154.996 26.092C154.684 26.4707 154.521 26.9755 154.521 27.5992V33.1228H152.004L151.997 33.1451Z" fill="#FFF6FE"/>
<path d="M167.454 22.1574V19.9005H169.971V22.1574H167.454ZM167.454 33.1453V23.6423H169.971V33.1453H167.454Z" fill="#FFF6FE"/>
<path d="M171.047 25.3046V23.6341H172.361V20.6719H174.826V23.6341H176.459V25.3046H174.826V30.3457C174.826 30.9767 175.138 31.2885 175.769 31.2885L176.511 31.2663V33.1223C176.125 33.1446 175.606 33.1594 174.937 33.1594C174.21 33.1594 173.594 32.9813 173.104 32.6323C172.606 32.2834 172.361 31.6969 172.361 30.8802V25.3046H171.047Z" fill="#FFF6FE"/>
<path d="M180.862 33.144L183.416 19.8918H192.644L192.221 22.1339H185.643L185.071 25.1184H190.855L190.432 27.3086H184.648L183.943 30.9242H190.669L190.246 33.1515H180.869L180.862 33.144Z" fill="#FFF6FE"/>
<path d="M192.355 25.3046L192.667 23.6341H193.869L194.441 20.6719H196.869L196.297 23.6341H197.893L197.581 25.3046H195.985L195.02 30.2491C194.886 30.9396 195.117 31.2885 195.725 31.2885L196.468 31.2514L196.119 33.1075C195.696 33.1446 195.324 33.1669 194.99 33.1669C193.988 33.1669 193.283 32.959 192.874 32.5432C192.466 32.1275 192.355 31.4445 192.54 30.4941L193.557 25.3046H192.355Z" fill="#FFF6FE"/>
<path d="M202.377 19.8934L201.412 24.9493H201.464C201.873 24.3925 202.288 23.9916 202.711 23.7466C203.135 23.5016 203.677 23.3753 204.33 23.3753C205.28 23.3753 206 23.7243 206.483 24.4296C206.966 25.1349 207.099 26.0332 206.891 27.132L205.741 33.1382H203.261L204.375 27.429C204.501 26.7979 204.449 26.3153 204.219 25.9813C203.988 25.6472 203.61 25.4838 203.083 25.4838C202.504 25.4838 202.014 25.714 201.62 26.1669C201.227 26.6272 200.959 27.2137 200.826 27.9487L199.823 33.1382H197.344L199.898 19.886H202.377V19.8934Z" fill="#FFF6FE"/>
<path d="M207.27 33.1453L209.104 23.6423H211.583L209.75 33.1453H207.27ZM209.401 22.1574L209.824 19.9005H212.304L211.88 22.1574H209.401Z" fill="#FFF6FE"/>
<path d="M216.253 33.4198C214.954 33.4198 213.885 33.0337 213.046 32.2616C212.207 31.4895 211.784 30.3981 211.784 28.9875C211.784 27.4433 212.281 26.1217 213.276 25.023C214.271 23.9242 215.555 23.3748 217.137 23.3748C218.399 23.3748 219.446 23.7608 220.277 24.5255C221.109 25.2902 221.525 26.3519 221.525 27.7105C221.525 29.2919 221.035 30.6357 220.062 31.7493C219.089 32.863 217.812 33.4198 216.246 33.4198H216.253ZM214.271 29.136C214.271 29.8413 214.434 30.4204 214.768 30.8658C215.103 31.3187 215.615 31.5414 216.305 31.5414C217.196 31.5414 217.872 31.148 218.347 30.3536C218.815 29.5666 219.052 28.6534 219.052 27.6289C219.052 26.9458 218.889 26.3816 218.555 25.9213C218.221 25.461 217.708 25.2383 217.018 25.2383C216.127 25.2383 215.452 25.6317 214.976 26.4187C214.509 27.2057 214.271 28.1114 214.271 29.136Z" fill="#FFF6FE"/>
<path d="M221.131 36.2558L223.574 23.6346H225.964L225.742 24.8002H225.793C226.536 23.8499 227.501 23.3748 228.704 23.3748C229.743 23.3748 230.545 23.7608 231.124 24.533C231.696 25.3051 231.985 26.2999 231.985 27.5249C231.985 28.2302 231.896 28.9207 231.711 29.5889C231.525 30.2645 231.25 30.8881 230.894 31.4672C230.538 32.0463 230.048 32.514 229.424 32.8778C228.8 33.2342 228.095 33.4123 227.301 33.4123C226.692 33.4123 226.142 33.2787 225.652 33.004C225.155 32.7293 224.784 32.3284 224.524 31.8013H224.487L223.618 36.2484H221.138L221.131 36.2558ZM224.984 29.1583C224.984 29.7745 225.148 30.2942 225.474 30.7173C225.801 31.1405 226.283 31.3484 226.929 31.3484C227.523 31.3484 228.013 31.1554 228.414 30.7619C228.808 30.3758 229.082 29.9081 229.231 29.3736C229.379 28.839 229.454 28.2525 229.454 27.6214C229.454 26.9904 229.305 26.4633 229.016 26.0401C228.726 25.6169 228.266 25.4016 227.635 25.4016C226.803 25.4016 226.157 25.7877 225.69 26.5598C225.222 27.3319 224.984 28.2005 224.984 29.1657V29.1583Z" fill="#FFF6FE"/>
<path d="M232.156 33.1453L233.99 23.6423H236.47L234.636 33.1453H232.156ZM234.287 22.1574L234.71 19.9005H237.19L236.766 22.1574H234.287Z" fill="#FFF6FE"/>
<path d="M242.156 33.1444C242.045 32.9439 242.001 32.6024 242.03 32.105H241.993C241.756 32.3648 241.548 32.5727 241.355 32.7286C241.162 32.8845 240.887 33.0256 240.531 33.1667C240.174 33.3003 239.781 33.3671 239.343 33.3671C238.526 33.3671 237.821 33.1295 237.219 32.6544C236.618 32.1792 236.321 31.4814 236.321 30.5682C236.321 30.0707 236.403 29.6476 236.559 29.2912C236.722 28.9348 236.922 28.6453 237.16 28.4226C237.398 28.1998 237.724 28.0142 238.125 27.8732C238.526 27.7321 238.912 27.6282 239.291 27.5614C239.669 27.4945 240.115 27.4426 240.635 27.4054C241.637 27.3164 242.298 27.2124 242.617 27.0936C242.936 26.9674 243.099 26.6853 243.099 26.2398C243.099 25.5345 242.602 25.1856 241.615 25.1856C240.531 25.1856 239.877 25.6385 239.669 26.5368H237.45C237.613 25.5494 238.058 24.7773 238.793 24.2279C239.528 23.6785 240.501 23.4038 241.711 23.4038C242.995 23.4038 243.983 23.7082 244.666 24.3244C245.349 24.9406 245.572 25.8909 245.327 27.1901L244.436 31.7486C244.31 32.3648 244.339 32.8029 244.51 33.0627V33.1518H242.156V33.1444ZM238.712 30.3454C238.712 30.7686 238.838 31.0879 239.098 31.3106C239.358 31.5333 239.699 31.6447 240.137 31.6447C240.753 31.6447 241.273 31.4814 241.681 31.1547C242.097 30.828 242.35 30.4271 242.453 29.9594L242.75 28.4597C242.394 28.623 241.785 28.7789 240.932 28.9423C240.857 28.9571 240.672 28.9794 240.367 29.0239C240.063 29.0685 239.848 29.1056 239.729 29.1427C239.603 29.1798 239.447 29.2467 239.246 29.3357C239.046 29.4248 238.912 29.5585 238.83 29.7218C238.749 29.8851 238.712 30.093 238.712 30.3454Z" fill="#FFF6FE"/>
</svg>
